<?xml version="1.0" encoding="UTF-8"?>
<svg width="80px" height="110px" viewBox="0 0 80 110" version="1.1" xmlns="http://www.w3.org/2000/svg" xmlns:xlink="http://www.w3.org/1999/xlink">
    <!-- Generator: sketchtool 52.6 (67491) - http://www.bohemiancoding.com/sketch -->
    <title>3C2E5303-2375-41B1-8E4A-9A62F902F29A@3x</title>
    <desc>Created with sketchtool.</desc>
    <g id="Page-1" stroke="none" stroke-width="1" fill="none" fill-rule="evenodd">
        <g id="768-(Tablet)" transform="translate(-344.000000, -24.000000)" fill="#12D46D">
            <g id="HEAD" transform="translate(344.000000, 24.000000)">
                <g id="Group-8" transform="translate(6.808511, 0.000000)">
                    <path d="M41.7372657,16.9906219 C37.4371231,14.5110036 32.5420146,14.0003543 28.0934273,15.1950363 C23.6519655,16.3861556 19.6629627,19.2731058 17.1785942,23.5732484 C12.2169825,32.1675959 15.1609354,43.1619954 23.7600331,48.1247946 C32.3579433,53.089969 43.3511552,50.1424534 48.3139544,41.5469183 C50.7971354,37.2479633 51.2982843,32.3492921 50.1119152,27.9018924 C48.9172332,23.4616181 46.0290954,19.4738029 41.7372657,16.9906219 M42.0769069,20.3502197 C42.9034463,23.0982258 43.3808441,25.6348468 43.5091002,27.9660205 C42.6243705,27.6667562 41.7586417,27.3425532 40.9095387,26.9744107 C41.471253,24.8653101 41.8631467,22.6600174 42.0769069,20.3502197 M43.5399767,29.8221715 C43.4782238,32.1854093 43.022202,34.3194486 42.1754741,36.2159765 C40.6969661,35.7587672 39.2528972,35.2243667 37.8527679,34.6294008 C38.8859422,32.7471235 39.740983,30.755591 40.4155152,28.6643038 C41.4320636,29.0846988 42.4735508,29.475405 43.5399767,29.8221715 M28.3843787,29.2010794 C27.1635705,28.2854732 25.9772014,27.3104892 24.8288341,26.2678145 C26.0508299,24.570796 27.6718447,23.1017884 29.6978164,21.8596042 C30.5326687,22.61014 31.3912722,23.3155486 32.2736268,23.9853306 C30.7927436,25.6194085 29.4983069,27.3568039 28.3843787,29.2010794 M33.7129454,25.0161298 C35.3280225,26.121745 37.0309787,27.0991041 38.7968754,27.9410818 C38.1365939,30.0394944 37.2827407,32.0322144 36.2376909,33.9133042 C33.9967715,32.8563788 31.860357,31.6331954 29.8213223,30.2271283 C30.92575,28.3828529 32.2225618,26.6442699 33.7129454,25.0161298 M28.9591561,31.7614515 C30.9922531,33.1497053 33.1191671,34.3705135 35.3410856,35.4226887 C34.2414081,37.1612716 32.9671598,38.80485 31.5207158,40.3439234 C29.8213223,39.5233218 28.1824941,38.5780267 26.6161069,37.5294142 C27.2229483,35.5093803 28.0067357,33.5855385 28.9591561,31.7614515 M36.9585377,36.1554111 C38.3847933,36.7634401 39.8502382,37.3144664 41.35606,37.7966144 C40.2706332,39.5862623 38.7790621,41.1550246 36.8777839,42.493401 C35.6201614,42.0872566 34.3946029,41.6276722 33.1987334,41.1146477 C34.6190511,39.5518232 35.8754861,37.8987443 36.9585377,36.1554111 M39.2897114,26.2381255 C37.7827021,25.5077782 36.3315078,24.6776761 34.9432541,23.7395064 C36.5630814,22.1458053 38.3812306,20.6649222 40.4048271,19.2944818 C40.2326314,21.7218476 39.8585511,24.0375831 39.2897114,26.2381255 M33.4896848,22.7098947 C32.7474619,22.1541182 32.0206772,21.573403 31.3176437,20.9570611 C33.4053682,19.8989481 35.8541101,19.036782 38.6555562,18.3765005 C36.754278,19.7184395 35.0335084,21.1613209 33.4896848,22.7098947 M36.0251182,17.266135 C33.7545099,17.9287917 31.7273507,18.7434555 29.9436406,19.7030013 C29.2726711,19.0510327 28.6135772,18.3765005 27.9746717,17.6663416 C30.5754207,16.835052 33.3554909,16.6913576 36.0251182,17.266135 M26.2372763,18.3408738 C26.9296218,19.1329741 27.6504687,19.8930104 28.3843787,20.6209826 C26.4154098,21.8833553 24.8038954,23.365426 23.548648,25.0576942 C22.656793,24.1848401 21.7839389,23.260921 20.9419612,22.2990001 C22.4323448,20.5829808 24.2445562,19.2469795 26.2372763,18.3408738 M19.2045658,24.7394291 C19.4088256,24.3831621 19.6297111,24.0375831 19.8541593,23.7050672 C20.7341388,24.6943019 21.6354943,25.6443472 22.5712889,26.54214 L22.5107235,26.6502077 C21.5001128,28.4101667 20.832706,30.3589471 20.4930648,32.494174 C19.45039,31.4526868 18.4457171,30.3506342 17.4742958,29.1797034 C17.8127494,27.6584433 18.3851517,26.1573717 19.2045658,24.7394291 M17.1465301,31.4835633 C18.148828,32.6188674 19.1891276,33.6912311 20.2721792,34.7006542 C20.1486734,37.2586513 20.444375,40.0482218 21.1687845,43.0729286 C18.3079605,39.9259035 16.8555788,35.7243281 17.1465301,31.4835633 M23.4453306,44.810324 C22.5249742,41.6918002 22.0428262,38.8321638 21.9953239,36.2290396 C22.8384892,36.938011 23.7018429,37.6089805 24.5901352,38.2431357 C24.0391089,40.3403608 23.6567157,42.525465 23.4453306,44.810324 M22.0737027,33.9857451 C22.2803375,31.6723848 22.8836163,29.601286 23.8811639,27.7712612 C25.0544699,28.8222488 26.2634025,29.8138586 27.5138997,30.734215 C26.546041,32.547614 25.7444403,34.45483 25.1079099,36.4618008 C24.0628601,35.692264 23.055812,34.8680997 22.0737027,33.9857451 M26.1280211,39.2988736 C27.4485841,40.1622273 28.8154618,40.9472022 30.2227164,41.6514233 C28.6919559,43.1263687 26.9889997,44.4991842 25.1197855,45.77462 C25.2860434,43.5182624 25.6268722,41.3592844 26.1280211,39.2988736 M31.9161722,42.4577743 C32.9137198,42.9007329 33.933831,43.3163777 34.9741306,43.688083 C32.6952094,44.9563935 29.9673917,45.9765046 26.787115,46.7448538 C28.6634545,45.4088526 30.3735361,43.9778468 31.9161722,42.4577743 M29.4270535,47.8445313 C32.4268216,46.9538638 35.0061946,45.806684 37.163985,44.4124925 C38.578365,44.8400129 40.0319344,45.2045928 41.522318,45.5062322 C37.9905245,47.8932211 33.6036902,48.7494494 29.4270535,47.8445313 M46.2915455,40.377175 C45.4768816,41.7844297 44.4769589,43.0230512 43.3380921,44.0704762 C41.8405831,43.8104013 40.381076,43.4933237 38.9595707,43.1097429 C40.6245251,41.759491 41.9676517,40.2121047 42.9865753,38.4723342 C43.0162642,38.4200817 43.0483282,38.3654541 43.0732669,38.3132016 C44.3261392,38.6647183 45.5920746,38.9675453 46.8865113,39.2371206 C46.7060027,39.6242641 46.5053057,39.999532 46.2915455,40.377175 M47.5551057,37.5899796 C46.3057961,37.3417802 45.0695497,37.0496413 43.8653672,36.7171254 C44.6919067,34.7920961 45.159804,32.6663697 45.2702467,30.3387587 C46.2642317,30.6130842 47.2795926,30.8529707 48.3139544,31.0548553 C48.5253395,33.2292715 48.2842655,35.4500025 47.5551057,37.5899796 M45.2833099,28.521797 C45.2179942,26.5124511 44.9104171,24.3605985 44.3510779,22.0709893 C46.1739774,24.088648 47.4411003,26.5540156 48.0206279,29.2070172 C47.0931462,29.0086952 46.1763525,28.7830594 45.2833099,28.521797" id="Fill-149"></path>
                    <path d="M61.9752477,39.1679935 C60.838756,38.8117265 59.6226979,39.442319 59.2640558,40.5799983 C55.588568,52.2762438 44.844743,60.131931 32.5321556,60.131931 C17.0879814,60.131931 4.5212569,47.6162715 4.5212569,32.2302875 C4.5212569,16.8407409 17.0879814,4.32389377 32.5321556,4.32389377 C43.7462531,4.32389377 54.0019923,11.1487818 58.3425119,21.3890828 L54.0019923,23.059975 L62.8350387,26.9836622 L66.7563507,18.152991 L62.381392,19.8333836 C57.4043421,7.93287843 45.5252129,-2.13162821e-14 32.5321556,-2.13162821e-14 C14.6962423,-2.13162821e-14 0.190237797,14.4525644 0.190237797,32.2302875 C0.190237797,50.0008852 14.6962423,64.4617626 32.5321556,64.4617626 C46.7472087,64.4617626 59.1500504,55.3864546 63.396753,41.8803728 C63.7506449,40.7367558 63.1176772,39.525448 61.9752477,39.1679935" id="Fill-151"></path>
                </g>
                <g id="Group-7" transform="translate(0.000000, 74.042553)">
                    <path d="M4.46725412,10.2975069 C1.78337609,10.2975069 0.0281673593,8.32141264 0.0281673593,5.32639476 C0.0281673593,2.62945361 1.66699554,0.363595519 4.54800797,0.363595519 C6.43147282,0.363595519 8.19974467,1.40270759 8.51800986,3.59968739 L6.86255588,3.59968739 C6.63810768,2.45844545 5.74387752,1.7803506 4.5171315,1.7803506 C2.51847366,1.7803506 1.70618491,3.58068649 1.70618491,5.32639476 C1.70618491,7.08635372 2.47928429,8.88431449 4.50288082,8.88431449 C6.05026714,8.88431449 6.7580509,7.85826554 6.93380928,6.46051136 L8.59995126,6.46051136 C8.42656799,8.76199615 6.83642964,10.2975069 4.46725412,10.2975069" id="Fill-153"></path>
                    <path d="M19.1714618,5.32686979 C19.1714618,8.28388585 17.3141232,10.2979819 14.6088692,10.2979819 C11.8858018,10.2979819 10.0474641,8.28388585 10.0474641,5.32686979 C10.0474641,2.53729921 11.7314194,0.349819862 14.6397456,0.349819862 C17.3141232,0.349819862 19.1714618,2.37697906 19.1714618,5.32686979 M11.7314194,5.29480576 C11.7314194,7.50959891 12.8477226,8.89547752 14.6397456,8.89547752 C16.3700157,8.89547752 17.4934443,7.48228511 17.4934443,5.30786888 C17.4934443,3.13939043 16.3700157,1.74757404 14.6088692,1.74757404 C12.8584107,1.74757404 11.7314194,3.15364111 11.7314194,5.29480576" id="Fill-155"></path>
                    <polygon id="Fill-158" points="28.8633492 10.0724649 27.1402045 10.0724649 22.7118057 3.08369403 22.7118057 10.0724649 21.135918 10.0724649 21.135918 0.575574381 22.8875641 0.575574381 27.2613352 7.57503328 27.2613352 0.575574381 28.8633492 0.575574381"></polygon>
                    <polygon id="Fill-159" points="38.0715447 2.01477429 35.0480254 2.01477429 35.0480254 10.0723462 33.3806959 10.0723462 33.3806959 2.01477429 30.3548016 2.01477429 30.3548016 0.575455625 38.0715447 0.575455625"></polygon>
                    <polygon id="Fill-160" points="39.6094305 10.0721087 41.2874481 10.0721087 41.2874481 0.575218114 39.6094305 0.575218114"></polygon>
                    <polygon id="Fill-161" points="51.4488953 10.0724649 49.7257506 10.0724649 45.3009145 3.08369403 45.3009145 10.0724649 43.7262144 10.0724649 43.7262144 0.575574381 45.4742978 0.575574381 49.8456938 7.57503328 49.8456938 0.575574381 51.4488953 0.575574381"></polygon>
                    <polygon id="Fill-162" points="60.7126685 1.97760376 55.5242335 1.97760376 55.5242335 4.49403631 60.3374006 4.49403631 60.3374006 5.8419131 55.5242335 5.8419131 55.5242335 8.64335924 60.7934223 8.64335924 60.7934223 10.0719899 53.8723422 10.0719899 53.8723422 0.575099358 60.7126685 0.575099358"></polygon>
                    <polygon id="Fill-163" points="70.4463578 10.0724649 68.7267758 10.0724649 64.2948144 3.08369403 64.2948144 10.0724649 62.7224894 10.0724649 62.7224894 0.575574381 64.4705727 0.575574381 68.8407812 7.57503328 68.8407812 0.575574381 70.4463578 0.575574381"></polygon>
                    <polygon id="Fill-164" points="79.6557409 2.01477429 76.6250963 2.01477429 76.6250963 10.0723462 74.9637046 10.0723462 74.9637046 2.01477429 71.9318724 2.01477429 71.9318724 0.575455625 79.6557409 0.575455625"></polygon>
                </g>
                <g id="Group-4" transform="translate(8.510638, 90.212766)">
                    <polygon id="Fill-165" points="7.29233264 1.6700602 2.1074603 1.6700602 2.1074603 4.19361809 6.91350207 4.19361809 6.91350207 5.53911977 2.1074603 5.53911977 2.1074603 8.33462813 7.37308649 8.33462813 7.37308649 9.76682145 0.455568998 9.76682145 0.455568998 0.269930913 7.29233264 0.269930913"></polygon>
                    <polygon id="Fill-166" points="11.9371042 4.84309282 8.79007908 0.269812157 10.7768614 0.269812157 12.9370269 3.63178504 15.1910094 0.269812157 17.0542858 0.269812157 13.9060731 4.84309282 17.2834843 9.76670269 15.2551375 9.76670269 12.8835869 6.13990468 10.4716593 9.76670269 8.54781753 9.76670269"></polygon>
                    <path d="M22.8930268,0.27028718 C24.8489327,0.27028718 26.1968094,1.1763929 26.1968094,3.16555029 C26.1968094,4.96469862 25.0389417,6.10831568 23.1186626,6.10831568 L20.433597,6.10831568 L20.433597,9.76717772 L18.7698302,9.76717772 L18.7698302,0.27028718 L22.8930268,0.27028718 Z M20.433597,4.76281399 L22.7528952,4.76281399 C23.8335717,4.76281399 24.5686693,4.32341803 24.5686693,3.20592722 C24.5686693,1.97680609 23.6601884,1.6585409 22.6092008,1.6585409 L20.433597,1.6585409 L20.433597,4.76281399 Z" id="Fill-167"></path>
                    <path d="M32.3945489,0.27028718 C34.0986926,0.27028718 35.5902638,0.949569584 35.5902638,2.91141317 C35.5902638,4.0585929 35.0202366,4.89700789 34.0179388,5.24258688 C35.2328092,5.51097468 35.35394,6.43251864 35.4382566,7.40275242 C35.5320735,8.53686903 35.552262,9.33609465 35.9382179,9.76717772 L34.1521327,9.76717772 C33.9098711,9.40259782 33.9027458,8.75300434 33.8457431,7.8718373 C33.7543012,6.37789104 33.3802209,5.84349054 31.7651438,5.84349054 L29.5539133,5.84349054 L29.5539133,9.76717772 L27.9032096,9.76717772 L27.9032096,0.27028718 L32.3945489,0.27028718 Z M29.5539133,4.60130629 L31.7544558,4.60130629 C32.8458204,4.60130629 33.9359974,4.44929903 33.9359974,3.08123377 C33.9359974,1.82836151 32.9657636,1.63241466 31.9670285,1.63241466 L29.5539133,1.63241466 L29.5539133,4.60130629 Z" id="Fill-169"></path>
                    <polygon id="Fill-172" points="44.6504898 1.6700602 39.4644299 1.6700602 39.4644299 4.19361809 44.277597 4.19361809 44.277597 5.53911977 39.4644299 5.53911977 39.4644299 8.33462813 44.7312436 8.33462813 44.7312436 9.76682145 37.8077883 9.76682145 37.8077883 0.269930913 44.6504898 0.269930913"></polygon>
                    <path d="M51.8188192,3.06757687 C51.7143142,1.88239533 50.9305268,1.40381 49.7536582,1.40381 C48.6195416,1.40381 47.9390716,1.89902113 47.9390716,2.72318544 C47.9390716,3.63285384 48.5280997,3.68391877 50.3557494,4.16369166 C51.9672638,4.57696137 53.7818504,4.9652924 53.7818504,7.00432717 C53.7818504,9.15380471 51.8746344,9.97796902 50.0054202,9.97796902 C47.7550004,9.97796902 46.0092921,8.91035559 46.0092921,6.61362103 L47.6493078,6.61362103 C47.6493078,8.08381616 48.7525479,8.65621847 50.1063625,8.65621847 C51.3806108,8.65621847 52.1418346,8.09687929 52.1418346,7.16464732 C52.1418346,6.1789753 51.3307334,6.00440447 49.9270415,5.64219969 C47.9153205,5.12086232 46.3560586,4.79309668 46.3560586,2.85975446 C46.3560586,1.16629867 47.7288741,0.0832470075 49.8605383,0.0832470075 C51.7974432,0.0832470075 53.3305788,0.950163363 53.4125202,3.06757687 L51.8188192,3.06757687 Z" id="Fill-173"></path>
                    <path d="M61.0004135,3.06757687 C60.8994711,1.88239533 60.1073709,1.40381 58.93644,1.40381 C57.8023234,1.40381 57.1242286,1.89902113 57.1242286,2.72318544 C57.1242286,3.63285384 57.7108815,3.68391877 59.5385312,4.16369166 C61.1524207,4.57696137 62.9646322,4.9652924 62.9646322,7.00432717 C62.9646322,9.15380471 61.0621664,9.97796902 59.188202,9.97796902 C56.9365946,9.97796902 55.1920739,8.91035559 55.1920739,6.61362103 L56.8309021,6.61362103 C56.8309021,8.08381616 57.9377049,8.65621847 59.2784563,8.65621847 C60.5681428,8.65621847 61.3234289,8.09687929 61.3234289,7.16464732 C61.3234289,6.1789753 60.5099526,6.00440447 59.1062606,5.64219969 C57.1004774,5.12086232 55.5364653,4.79309668 55.5364653,2.85975446 C55.5364653,1.16629867 56.9092808,0.0832470075 59.0397574,0.0832470075 C60.9778499,0.0832470075 62.5133606,0.950163363 62.5917394,3.06757687 L61.0004135,3.06757687 Z" id="Fill-175"></path>
                </g>
                <g id="Group-6" transform="translate(0.000000, 105.531915)">
                    <path d="M1.67827733,4.06224991 C0.737732458,4.06224991 0.120203,3.38534262 0.120203,2.36641902 C0.120203,1.42231148 0.717543995,0.674150789 1.70321602,0.674150789 C2.48344073,0.674150789 3.04753014,1.16817436 3.10928309,1.83083097 L2.40981222,1.83083097 C2.33737127,1.47693909 2.07373369,1.26674156 1.69252801,1.26674156 C1.06549809,1.26674156 0.82917432,1.82489318 0.82917432,2.36879413 C0.82917432,3.03501341 1.1557524,3.46015869 1.68659022,3.46015869 C2.10936039,3.46015869 2.36230996,3.20720913 2.42168779,2.73456158 L3.12115866,2.73456158 C3.05109281,3.52428675 2.56063192,4.06224991 1.67827733,4.06224991" id="Fill-177"></path>
                    <path d="M6.9782239,2.37485067 C6.9782239,3.38071115 6.33813087,4.06236867 5.39402333,4.06236867 C4.43447756,4.06236867 3.79557208,3.38546138 3.79557208,2.37485067 C3.79557208,1.34880172 4.43091489,0.674269545 5.39402333,0.674269545 C6.33813087,0.674269545 6.9782239,1.36186485 6.9782239,2.37485067 M4.51523141,2.36653777 C4.51523141,3.05650819 4.84893483,3.47215301 5.39402333,3.47452813 C5.93554916,3.47452813 6.26450236,3.04819529 6.26450236,2.36653777 C6.26450236,1.67894247 5.92723627,1.25498475 5.38808555,1.25498475 C4.84893483,1.25498475 4.51523141,1.68725537 4.51523141,2.36653777" id="Fill-179"></path>
                    <path d="M9.34169915,0.75466713 C9.94260281,0.75466713 10.4318762,1.02305493 10.4318762,1.67146086 C10.4318762,2.04435365 10.2430546,2.34005526 9.92241435,2.46474871 C10.2834316,2.53362699 10.3701232,2.900582 10.3986246,3.21528451 C10.4152504,3.4183567 10.429501,3.86369044 10.5506318,3.98363366 L9.81672181,3.98363366 C9.73715551,3.81975085 9.73715551,3.50029811 9.72409239,3.32216461 C9.6718399,2.87920598 9.53289577,2.72007339 9.07331135,2.72007339 L8.44390632,2.72007339 L8.44390632,3.98363366 L7.74087278,3.98363366 L7.74087278,0.75466713 L9.34169915,0.75466713 Z M8.44390632,2.20229869 L9.11725094,2.20229869 C9.44857925,2.20229869 9.73715551,2.15004619 9.73715551,1.74627693 C9.73715551,1.37338415 9.44857925,1.3116312 9.15169008,1.3116312 L8.44390632,1.3116312 L8.44390632,2.20229869 Z" id="Fill-181"></path>
                    <path d="M12.8452288,0.75466713 C13.5399494,0.75466713 14.0220974,1.08362032 14.0220974,1.79496676 C14.0220974,2.49087495 13.5256987,2.82339082 12.8749177,2.82339082 L12.1493206,2.82339082 L12.1493206,3.98363366 L11.4486622,3.98363366 L11.4486622,0.75466713 L12.8452288,0.75466713 Z M12.1493206,2.26286408 L12.7834758,2.26286408 C13.0969908,2.26286408 13.3380648,2.16310932 13.3380648,1.79852943 C13.3380648,1.454138 13.0969908,1.33419478 12.7834758,1.33419478 L12.1493206,1.33419478 L12.1493206,2.26286408 Z" id="Fill-183"></path>
                    <path d="M17.8378357,2.37485067 C17.8378357,3.38071115 17.19418,4.06236867 16.2488849,4.06236867 C15.2881516,4.06236867 14.6504336,3.38546138 14.6504336,2.37485067 C14.6504336,1.34880172 15.2881516,0.674269545 16.2548227,0.674269545 C17.19418,0.674269545 17.8378357,1.36186485 17.8378357,2.37485067 M15.3641552,2.36653777 C15.3641552,3.05650819 15.704984,3.47215301 16.2548227,3.47452813 C16.7868481,3.47452813 17.1205515,3.04819529 17.1205515,2.36653777 C17.1205515,1.67894247 16.7856605,1.25498475 16.240572,1.25498475 C15.7061715,1.25498475 15.3641552,1.68725537 15.3641552,2.36653777" id="Fill-185"></path>
                    <path d="M20.3428677,0.75466713 C20.9437714,0.75466713 21.4330447,1.02305493 21.4330447,1.67146086 C21.4330447,2.04435365 21.2430356,2.34005526 20.9247705,2.46474871 C21.2810374,2.53362699 21.3689166,2.900582 21.3938553,3.21528451 C21.4140438,3.4183567 21.4259194,3.86369044 21.5494253,3.98363366 L20.8190779,3.98363366 C20.7359489,3.81975085 20.7359489,3.50029811 20.7133854,3.32216461 C20.6718209,2.87920598 20.5364394,2.72007339 20.0709172,2.72007339 L19.4438873,2.72007339 L19.4438873,3.98363366 L18.7372911,3.98363366 L18.7372911,0.75466713 L20.3428677,0.75466713 Z M19.4438873,2.20229869 L20.1160444,2.20229869 C20.44381,2.20229869 20.7418867,2.15004619 20.7418867,1.74627693 C20.7418867,1.37338415 20.44381,1.3116312 20.1409831,1.3116312 L19.4438873,1.3116312 L19.4438873,2.20229869 Z" id="Fill-187"></path>
                    <path d="M25.239045,3.98339615 L24.4932594,3.98339615 L24.2391223,3.26017415 L23.0337523,3.26017415 L22.7736774,3.98339615 L22.0504554,3.98339615 L23.2748263,0.746116722 L24.0027985,0.746116722 L25.239045,3.98339615 Z M23.6358435,1.54059212 L23.2071356,2.74833724 L24.0645515,2.74833724 L23.6358435,1.54059212 Z" id="Fill-190"></path>
                    <polygon id="Fill-191" points="28.0028456 1.3566396 27.0349869 1.3566396 27.0349869 3.98351491 26.3188903 3.98351491 26.3188903 1.3566396 25.3510316 1.3566396 25.3510316 0.754548375 28.0028456 0.754548375"></polygon>
                    <polygon id="Fill-192" points="31.1537897 1.33455104 29.4342076 1.33455104 29.4342076 2.03520947 31.0100953 2.03520947 31.0100953 2.59573621 29.4342076 2.59573621 29.4342076 3.39021161 31.1834786 3.39021161 31.1834786 3.98280237 28.7264239 3.98280237 28.7264239 0.755023397 31.1537897 0.755023397"></polygon>
                    <polygon id="Fill-193" points="36.0059086 1.3566396 35.0368624 1.3566396 35.0368624 3.98351491 34.3267035 3.98351491 34.3267035 1.3566396 33.3529071 1.3566396 33.3529071 0.754548375 36.0059086 0.754548375"></polygon>
                    <path d="M38.4183112,0.75466713 C39.0144646,0.75466713 39.5061131,1.02305493 39.5061131,1.67146086 C39.5061131,2.04435365 39.316104,2.34005526 38.9966513,2.46474871 C39.3552934,2.53362699 39.4455477,2.900582 39.4704864,3.21528451 C39.4894873,3.4183567 39.4978002,3.86369044 39.6272439,3.98363366 L38.8933339,3.98363366 C38.8078298,3.81975085 38.8078298,3.50029811 38.7935791,3.32216461 C38.7460768,2.87920598 38.6106954,2.72007339 38.1463607,2.72007339 L37.513393,2.72007339 L37.513393,3.98363366 L36.8127346,3.98363366 L36.8127346,0.75466713 L38.4183112,0.75466713 Z M37.513393,2.20229869 L38.1879252,2.20229869 C38.5204411,2.20229869 38.8102049,2.15004619 38.8102049,1.74627693 C38.8102049,1.37338415 38.5204411,1.3116312 38.2211768,1.3116312 L37.513393,1.3116312 L37.513393,2.20229869 Z" id="Fill-194"></path>
                    <path d="M43.3366958,3.98339615 L42.5932854,3.98339615 L42.3403358,3.26017415 L41.1373409,3.26017415 L40.8677656,3.98339615 L40.1445436,3.98339615 L41.3760398,0.746116722 L42.1063871,0.746116722 L43.3366958,3.98339615 Z M41.7418073,1.54059212 L41.3107242,2.74833724 L42.1681401,2.74833724 L41.7418073,1.54059212 Z" id="Fill-196"></path>
                    <polygon id="Fill-197" points="44.2099062 0.75466713 44.9366909 3.026463 45.6706009 0.75466713 46.4116363 0.75466713 45.3285846 3.98363366 44.5281714 3.98363366 43.4724336 0.75466713"></polygon>
                    <polygon id="Fill-198" points="49.4982148 1.33455104 47.7786327 1.33455104 47.7786327 2.03520947 49.3628333 2.03520947 49.3628333 2.59573621 47.7786327 2.59573621 47.7786327 3.39021161 49.5314663 3.39021161 49.5314663 3.98280237 47.0803494 3.98280237 47.0803494 0.755023397 49.4982148 0.755023397"></polygon>
                    <polygon id="Fill-199" points="52.7385818 3.98339615 50.4537228 3.98339615 50.4537228 0.754429619 51.1579439 0.754429619 51.1579439 3.37417959 52.7385818 3.37417959"></polygon>
                    <path d="M56.7349475,1.71492544 C56.7100088,1.40616071 56.5009988,1.23990278 56.1221682,1.23990278 C55.8003404,1.23990278 55.5996433,1.37053401 55.5996433,1.60329511 C55.5996433,1.88830871 55.9464099,1.9049345 56.5876905,2.08663067 C57.1660305,2.25051349 57.531798,2.47258658 57.531798,3.01292486 C57.531798,3.77414867 56.8596409,4.05678715 56.2064848,4.05678715 C55.3288804,4.05678715 54.8134808,3.63282943 54.8004177,2.90248209 L55.5082015,2.90248209 C55.520077,3.33475271 55.8027155,3.50813598 56.2337986,3.50813598 C56.610254,3.50813598 56.8394525,3.34900339 56.8394525,3.08417826 C56.8394525,2.82647846 56.6126291,2.78253887 55.9464099,2.59134225 C55.4238849,2.44171011 54.9215485,2.31107888 54.9215485,1.65079738 C54.9215485,1.06651951 55.4167596,0.685313822 56.1649203,0.685313822 C56.8430151,0.685313822 57.395229,0.995266108 57.405917,1.71492544 L56.7349475,1.71492544 Z" id="Fill-200"></path>
                    <path d="M79.034055,1.71492544 C79.0103038,1.40616071 78.7989188,1.23990278 78.4224633,1.23990278 C78.0994479,1.23990278 77.8999384,1.37053401 77.8999384,1.60329511 C77.8999384,1.88830871 78.2455174,1.9049345 78.886798,2.08663067 C79.4663256,2.25051349 79.8297179,2.47258658 79.8297179,3.01292486 C79.8297179,3.77414867 79.159936,4.05678715 78.5055923,4.05678715 C77.6279879,4.05678715 77.1090256,3.63282943 77.1007128,2.90248209 L77.8049338,2.90248209 C77.8168094,3.33475271 78.101823,3.50813598 78.5352812,3.50813598 C78.9105491,3.50813598 79.13856,3.34900339 79.13856,3.08417826 C79.13856,2.82647846 78.9129242,2.78253887 78.2478925,2.59134225 C77.7229924,2.44171011 77.2230311,2.31107888 77.2230311,1.65079738 C77.2230311,1.06651951 77.7123044,0.685313822 78.4640278,0.685313822 C79.1409351,0.685313822 79.695524,0.995266108 79.706212,1.71492544 L79.034055,1.71492544 Z" id="Fill-202"></path>
                    <polygon id="Fill-205" points="60.7743027 1.33455104 59.0570958 1.33455104 59.0570958 2.03520947 60.6353585 2.03520947 60.6353585 2.59573621 59.0570958 2.59573621 59.0570958 3.39021161 60.8039916 3.39021161 60.8039916 3.98280237 58.349312 3.98280237 58.349312 0.755023397 60.7743027 0.755023397"></polygon>
                    <path d="M63.3511818,0.75466713 C63.9437726,0.75466713 64.4342335,1.02305493 64.4342335,1.67146086 C64.4342335,2.04435365 64.2465996,2.34005526 63.9259593,2.46474871 C64.288164,2.53362699 64.3736681,2.900582 64.4021695,3.21528451 C64.4164202,3.4183567 64.4282957,3.86369044 64.5565519,3.98363366 L63.8214543,3.98363366 C63.7383253,3.81975085 63.7383253,3.50029811 63.7193244,3.32216461 C63.6706346,2.87920598 63.5423785,2.72007339 63.0804189,2.72007339 L62.4438886,2.72007339 L62.4438886,3.98363366 L61.7444177,3.98363366 L61.7444177,0.75466713 L63.3511818,0.75466713 Z M62.4438886,2.20229869 L63.1196083,2.20229869 C63.4497491,2.20229869 63.7442631,2.15004619 63.7442631,1.74627693 C63.7442631,1.37338415 63.4497491,1.3116312 63.1481097,1.3116312 L62.4438886,1.3116312 L62.4438886,2.20229869 Z" id="Fill-206"></path>
                    <polygon id="Fill-208" points="65.6891246 0.75466713 66.419472 3.026463 67.153382 0.75466713 67.8884795 0.75466713 66.8125532 3.98363366 66.0109525 3.98363366 64.9516519 0.75466713"></polygon>
                    <polygon id="Fill-209" points="68.620252 3.98339615 69.3315984 3.98339615 69.3315984 0.754429619 68.620252 0.754429619"></polygon>
                    <path d="M71.7151433,4.06224991 C70.7745985,4.06224991 70.1558815,3.38534262 70.1558815,2.36641902 C70.1558815,1.42231148 70.7520349,0.674150789 71.7460198,0.674150789 C72.5226819,0.674150789 73.082021,1.16817436 73.1390238,1.83083097 L72.441928,1.83083097 C72.3730497,1.47693909 72.1129748,1.26674156 71.7305816,1.26674156 C71.1083019,1.26674156 70.869603,1.82489318 70.869603,2.36879413 C70.869603,3.03501341 71.1949935,3.46015869 71.7234562,3.46015869 C72.1462264,3.46015869 72.4027386,3.20720913 72.4609289,2.73456158 L73.1615873,2.73456158 C73.0891464,3.52428675 72.6034357,4.06224991 71.7151433,4.06224991" id="Fill-210"></path>
                    <polygon id="Fill-212" points="76.3400827 1.33455104 74.6216882 1.33455104 74.6216882 2.03520947 76.199951 2.03520947 76.199951 2.59573621 74.6216882 2.59573621 74.6216882 3.39021161 76.3685841 3.39021161 76.3685841 3.98280237 73.915092 3.98280237 73.915092 0.755023397 76.3400827 0.755023397"></polygon>
                </g>
            </g>
        </g>
    </g>
</svg>