<?xml version="1.0" encoding="UTF-8"?>
<svg width="43px" height="72px" viewBox="0 0 43 72" version="1.1" xmlns="http://www.w3.org/2000/svg" xmlns:xlink="http://www.w3.org/1999/xlink">
    <!-- Generator: sketchtool 52.6 (67491) - http://www.bohemiancoding.com/sketch -->
    <title>891B9E35-6C9E-40A2-8180-0951D796AA6B@3x</title>
    <desc>Created with sketchtool.</desc>
    <g id="Page-1" stroke="none" stroke-width="1" fill="none" fill-rule="evenodd">
        <g id="768-(Tablet)" transform="translate(-176.000000, -597.000000)" fill-rule="nonzero">
            <g id="BODY" transform="translate(104.000000, 179.000000)">
                <g id="ico-passport" transform="translate(74.000000, 418.000000)">
                    <path d="M1,7.74 L35.88,7.74 C38.0339105,7.74 39.78,9.48608948 39.78,11.64 L39.78,60.36 C39.78,62.5139105 38.0339105,64.26 35.88,64.26 L1,64.26 C-0.0493410247,64.26 -0.9,63.409341 -0.9,62.36 L-0.9,9.64 C-0.9,8.59065898 -0.0493410247,7.74 1,7.74 Z" id="Rectangle" stroke="#FFFFFF" stroke-width="1.8"></path>
                    <path d="M8.64,52.56 L30.24,52.56" id="Line" stroke="#FFFFFF" stroke-width="2" stroke-linecap="round" stroke-linejoin="round"></path>
                    <path d="M19.3519743,45.2912974 C20.3379518,44.3055842 21.6937386,43.3484653 23.4194963,42.4094501 C24.6383737,41.7462374 26.0363313,41.4381677 27.5977839,41.4795956 C27.6388876,41.4805043 27.6388876,41.4805043 27.6800011,41.4806861 C29.3920859,41.4806871 30.7800058,40.092769 30.7800068,38.3806842 L30.7800151,21.7199982 C30.7800151,20.5602002 29.839813,19.6199982 28.6800152,19.6199982 L10.2000001,19.62 C9.04020203,19.62 8.1,20.560202 8.1,21.72 L8.1,38.4906298 C8.10007071,38.5162727 8.10007071,38.5162727 8.10042422,38.5419132 C8.12874728,40.2537662 9.53943805,41.6185344 11.2512908,41.5902056 C12.6981713,41.5662665 13.9550915,41.8355643 15.0098006,42.4094501 C16.5497695,43.2473743 17.9973408,44.2080892 19.3519743,45.2912974 Z" id="Rectangle" stroke="#FFFFFF" stroke-width="1.8"></path>
                    <path d="M19.44,30.5524979 C19.5365321,30.5444727 19.6318316,30.5358197 19.7258984,30.526539 L19.7261795,28.5258393 C19.7259924,28.5174134 19.7258984,28.5089649 19.7258984,28.5004949 C19.7258984,27.870617 20.2458722,27.36 20.8872924,27.36 C21.5287127,27.36 22.0486865,27.870617 22.0486865,28.5004949 C22.0486865,29.1303729 21.5287127,29.6409899 20.8872924,29.6409899 C20.8436745,29.6409899 20.8006181,29.6386287 20.7582486,29.6340292 L20.7582486,30.3913143 C21.7557349,30.2247902 22.5817338,29.970926 23.2362455,29.6297216 C24.6299183,28.9031841 24.1265888,27.2093379 24.9008515,28.1386301 C25.6751142,29.0679223 26.6559057,31.0553403 25.0751194,32.861124 C24.0212618,34.0649798 22.6727347,34.4282485 21.029538,33.9509303 L22.406005,36.7894955 C22.0819225,37.0035143 21.6231002,37.1837406 21.029538,37.3301746 C20.4473045,37.4738136 19.9174585,37.4765551 19.44,37.3383991 C18.9625415,37.4765551 18.4326955,37.4738136 17.850462,37.3301746 C17.2568998,37.1837406 16.7980775,37.0035143 16.473995,36.7894955 L17.850462,33.9509303 C16.2072653,34.4282485 14.8587382,34.0649798 13.8048806,32.861124 C12.2240943,31.0553403 13.2048858,29.0679223 13.9791485,28.1386301 C14.7534112,27.2093379 14.2500817,28.9031841 15.6437545,29.6297216 C16.2982662,29.970926 17.1242651,30.2247902 18.1217514,30.3913143 L18.1217514,29.6340292 C18.0793819,29.6386287 18.0363255,29.6409899 17.9927076,29.6409899 C17.3512873,29.6409899 16.8313135,29.1303729 16.8313135,28.5004949 C16.8313135,27.870617 17.3512873,27.36 17.9927076,27.36 C18.6341278,27.36 19.1541016,27.870617 19.1541016,28.5004949 C19.1541016,28.5089649 19.1540076,28.5174134 19.1538205,28.5258393 L19.1541016,30.526539 C19.2481684,30.5358197 19.3434679,30.5444727 19.44,30.5524979 Z M19.4688,26.352 C18.9518615,26.352 18.5328,25.9329385 18.5328,25.416 C18.5328,24.8990615 18.9518615,24.48 19.4688,24.48 C19.9857385,24.48 20.4048,24.8990615 20.4048,25.416 C20.4048,25.9329385 19.9857385,26.352 19.4688,26.352 Z" id="Combined-Shape" fill="#FFFFFF"></path>
                    <path d="M3.78,7.74 L33.66,7.74 L33.66,3.5 C33.66,2.06405965 32.4959403,0.9 31.06,0.9 L6.38,0.9 C4.94405965,0.9 3.78,2.06405965 3.78,3.5 L3.78,7.74 Z" id="Rectangle" stroke="#FFFFFF" stroke-width="1.8"></path>
                    <path d="M3.78,71.1 L33.66,71.1 L33.66,66.86 C33.66,65.4240597 32.4959403,64.26 31.06,64.26 L6.38,64.26 C4.94405965,64.26 3.78,65.4240597 3.78,66.86 L3.78,71.1 Z" id="Rectangle" stroke="#FFFFFF" stroke-width="1.8" transform="translate(18.720000, 67.680000) scale(1, -1) translate(-18.720000, -67.680000) "></path>
                </g>
            </g>
        </g>
    </g>
</svg>